# xmcd
#
# Track frame offsets: 
#        150
#        20901
#        32113
#        42863
#        54245
#        66663
#        78447
#        81702
#        97702
#        109126
#        127995
#        178956
#        185545
#        193480
#        232878
#        239111
#        241600
#        255288
#        267372
#        279199
#        291136
#        299544
#        309954
#        314178
#        325628
#        337251
#        342073
#        352538
#        357266
#
# Disc length: 4780 seconds
#
# Revision: 0
# Processed by: cddbd v1.5.2PL0 Copyright (c) Steve Scherf et al.
# Submitted via: ExactAudioCopy v0.95b3
#
DISCID=b812aa1d
DTITLE=The Monkees  - The Monkees Complete 21 of 28  
DYEAR=1900
DGENRE=
TTITLE0=Who Are You? - Relax
TTITLE1=I'm A Believer Blues
TTITLE2=Prithee
TTITLE3=Naked Persimmon
TTITLE4=Goldilocks Sometime
TTITLE5=Wind-Up Man - Pyramid
TTITLE6=Darwin's Song (Evolution)
TTITLE7=Only The Fittest Shall Survive
TTITLE8=I Go Ape
TTITLE9=Come On Up
TTITLE10=50's Medley - Dry Bones
TTITLE11=String For My Kite
TTITLE12=Solfeggietto
TTITLE13=Listen To The Band
TTITLE14=California Here It Comes
TTITLE15=33 1\\3 Revolutions Per Monkee TV Promo
TTITLE16=I Go Ape (without vocal overdubs)
TTITLE17=I Go Ape (composite version)
TTITLE18=Prithee (without vocal overdubs)
TTITLE19=Naked Persimmon (without vocal overdubs)
TTITLE20=Buttoning The Buttons (demo)
TTITLE21=I Ain't No Miracle Worker (partial demo?)
TTITLE22=I Am A Fish (demo)
TTITLE23=I Wish That I Were Dead (demo?)
TTITLE24=Lucky You (demo)
TTITLE25=String For My Kite (demo)
TTITLE26=The Bus and The Crocodile (demo)
TTITLE27=Wind-Up Man (demo)
TTITLE28=33 1\\3 Revolutions Per Monkee Ad Promo
EXTD=
EXTT0=
EXTT1=
EXTT2=
EXTT3=
EXTT4=
EXTT5=
EXTT6=
EXTT7=
EXTT8=
EXTT9=
EXTT10=
EXTT11=
EXTT12=
EXTT13=
EXTT14=
EXTT15=
EXTT16=
EXTT17=
EXTT18=
EXTT19=
EXTT20=
EXTT21=
EXTT22=
EXTT23=
EXTT24=
EXTT25=
EXTT26=
EXTT27=
EXTT28=
PLAYORDER=
